<?xml version="1.0" encoding="UTF-8" standalone="no"?>
<svg xmlns="http://www.w3.org/2000/svg" xmlns:xlink="http://www.w3.org/1999/xlink"  version="1.2" baseProfile="tiny">
<title>pyqtgraph SVG export</title>
<desc>Generated with Qt and pyqtgraph</desc>
<defs>
</defs>
<g fill="none" fill-rule="evenodd" id="ViewBox_1" stroke="black" stroke-linecap="square" stroke-linejoin="bevel" stroke-width="1">
    <g fill="none" font-family="Ubuntu" font-size="14.6667" font-style="normal" font-weight="400" stroke="none">
        <path d="M0.0,0.0 L824.0,0.0 L824.0,429.0 L0.0,429.0 L0.0,0.0 " fill-rule="evenodd" vector-effect="non-scaling-stroke"/>
    </g>
    <clipPath id="ViewBox_1_clip">
        <path d="M0.0,0.0 L824.0,0.0 L824.0,429.0 L0.0,429.0 L0.0,0.0 " fill-rule="evenodd" vector-effect="non-scaling-stroke"/>
    </clipPath>
    <g clip-path="url(#ViewBox_1_clip)">
        <g fill="none" fill-rule="evenodd" id="ChildGroup_1" stroke="black" stroke-linecap="square" stroke-linejoin="bevel" stroke-width="1">
            <g id="PlotDataItem_1">
                <g fill="none" fill-rule="evenodd" id="PlotCurveItem_1" stroke="black" stroke-linecap="square" stroke-linejoin="bevel" stroke-width="1">
                    <g fill="none" font-family="Ubuntu" font-size="14.6667" font-style="normal" font-weight="400" stroke="#fac832" stroke-linecap="square" stroke-linejoin="bevel" stroke-opacity="1" stroke-width="1">
                        <path d="M27.4955,409.46896684 L28.268373,408.77675518 L29.041246,407.42963668 L29.814119,407.9297976 L30.586992,407.00684872 L31.359865,407.46832316 L32.132738,406.5826791 L32.905611,404.23662042 L33.678484,405.77578966 L34.451357,404.5447306 L35.22423,404.19793394 L35.997103,403.7364595 L36.769976,401.89056174 L37.542849,403.15892562 L38.315722,402.27466322 L39.088595,401.2356549 L39.861468,400.12065528 L40.634341,399.35107066 L41.407214,402.39072266 L42.180087,398.31206234 L42.95296,398.85090974 L43.725833,398.77353678 L44.498706,396.81157958 L45.271579,398.15869808 L46.044452,395.8886307 L46.817325,395.46584274 L47.590198,396.35010514 L48.363071,395.50452922 L49.135944,395.27241034 L49.908817,393.77330924 L50.68169,392.11808056 L51.454563,392.11808056 L52.227436,392.65692796 L53.000309,392.11808056 L53.773182,391.11775872 L54.546055,389.07981022 L55.318928,391.92602982 L56.091801,389.04112374 L56.864674,388.23285264 L57.637547,388.19416616 L58.41042,386.8871158 L59.183293,389.31054744 L59.956166,386.54031914 L60.729039,385.809421 L61.501912,385.84810748 L62.274785,384.23156528 L63.047658,385.42393786 L63.820531,383.26992992 L64.593404,382.46304048 L65.366277,383.11656566 L66.13915,381.84682012 L66.912023,382.34698104 L67.684896,380.03822718 L68.457769,380.30765088 L69.230642,380.69313402 L70.003515,380.07691366 L70.776388,379.15396478 L71.549261,378.61511738 L72.322134,376.57578722 L73.095007,377.73085498 L73.86788,376.5384824 L74.640753,375.26873686 L75.413626,375.65283834 L76.186499,374.07636428 L76.959372,374.69120298 L77.732245,373.53751688 L78.505118,371.92097468 L79.277991,373.19072022 L80.050864,371.2674495 L80.823737,372.49850856 L81.59661,368.95869564 L82.369483,368.26648398 L83.142356,369.8443397 L83.915229,368.18911102 L84.688102,368.84401786 L85.460975,366.69000992 L86.233848,366.72731474 L87.006721,366.49657752 L87.779594,365.07346772 L88.552467,364.2278918 L89.32534,363.57298496 L90.098213,363.80372218 L90.871086,363.84240866 L91.643959,362.03519738 L92.416832,360.18791796 L93.189705,361.11086684 L93.962578,360.34128222 L94.735451,361.11086684 L95.508324,359.72644352 L96.281197,356.725478 L97.05407,357.76448632 L97.826943,356.07195282 L98.599816,355.49441894 L99.372689,354.10999562 L100.145562,353.57114822 L100.918435,355.37974116 L101.691308,353.64852118 L102.464181,352.37877564 L103.237054,351.916748536 L104.009927,351.224260544 L104.7828,351.878338388 L105.555673,350.262487018 L106.328546,349.031427958 L107.101419,346.453941228 L107.874292,346.607858152 L108.647165,344.722721248 L109.420038,342.530026828 L110.192911,341.298967768 L110.965784,344.376615418 L111.738657,344.145740032 L112.51153,341.798990522 L113.284403,340.298645928 L114.057276,333.027798344 L114.830149,340.106318856 L115.603022,335.374409688 L116.375895,329.06533563 L117.148768,332.3737205 L117.921641,327.257157188 L118.694514,331.873697746 L119.467387,322.448427724 L120.24026,308.368206996 L121.013133,300.173996034 L121.786006,323.02540894 L122.558879,315.485137656 L123.331752,290.17160663 L124.104625,285.324328852 L124.877498,273.090696714 L125.650371,293.941742272 L126.423244,271.051781052 L127.196117,266.242913422 L127.96899,267.974133402 L128.741863,268.320377398 L129.514736,267.89717494 L130.287609,264.242546074 L131.060482,264.627200218 L131.833355,262.819021776 L132.606228,265.627383892 L133.379101,264.434873146 L134.151974,261.51114242 L134.924847,261.0109815 L135.69772,261.395635644 L136.470593,262.434367632 L137.243466,260.241535046 L138.016339,259.549047054 L138.789212,260.049207974 L139.562085,260.356903656 L140.334958,259.856880902 L141.107831,258.356536308 L141.880704,258.279577846 L142.653577,257.548679706 L143.42645,258.779738766 L144.199323,256.240662184 L144.972196,256.856191714 L145.745069,255.086561586 L146.517942,255.778911412 L147.290815,256.240662184 L148.063688,255.163520048 L148.836561,255.740501264 L149.609434,255.278888658 L150.382307,256.779233252 L151.15518,255.240340344 L151.928053,253.432300068 L152.700926,253.816954212 L153.473799,253.316931458 L154.246672,253.778544064 L155.019545,252.970687462 L155.792418,252.970687462 L156.565291,253.316931458 L157.338164,252.124282546 L158.111037,252.701401928 L158.88391,251.77803855 L159.656783,251.585711478 L160.429656,252.124282546 L161.202529,251.27787763 L161.975402,250.893223486 L162.748275,250.623937952 L163.521148,250.43161088 L164.294021,250.816265024 L165.066894,249.893039812 L165.839767,249.43128904 L166.61264,251.470342868 L167.385513,248.661980752 L168.158386,249.546795816 L168.931259,249.085045044 L169.704132,248.20022998 L170.477005,249.008224748 L171.249878,247.700207226 L172.022751,247.738617374 L172.795624,247.046129382 L173.568497,247.430921692 L174.34137,247.815575836 L175.114243,247.084677696 L175.887116,247.430921692 L176.659989,246.776843848 L177.432862,246.661475238 L178.205735,247.200046306 L178.978608,246.430599852 L179.751481,246.23827278 L180.524354,245.853618636 L181.297227,246.469148166 L182.0701,245.62274325 L182.842973,245.468826326 L183.615846,245.430416178 L184.388719,246.045945708 L185.161592,245.50737464 L185.934465,245.430416178 L186.707338,244.930255258 L187.480211,244.737928186 L188.253084,243.930071584 L189.025957,244.314725728 L189.79883,244.007030046 L190.571703,244.353274042 L191.344576,244.083988508 L192.117449,243.814702974 L192.890322,242.583643914 L193.663195,243.391500516 L194.436068,243.77615466 L195.208941,243.468458978 L195.981814,243.391500516 L196.754687,243.391500516 L197.52756,242.583643914 L198.300433,242.5450956 L199.073306,243.006708206 L199.846179,241.852607608 L200.619052,241.429543316 L201.391925,243.04525652 L202.164798,241.775649146 L202.937671,242.083482994 L203.710544,241.352584854 L204.483417,241.506363612 L205.25629,241.352584854 L206.029163,241.621870388 L206.802036,240.006019018 L207.574909,239.929198722 L208.347782,240.814013786 L209.120655,240.775465472 L209.893528,240.429221476 L210.666401,239.35207934 L211.439274,239.582954726 L212.212147,240.46776979 L212.98502,240.506179938 L213.757893,240.006019018 L214.530766,239.698323336 L215.303639,239.23671073 L216.076512,239.890650408 L216.849385,239.313669192 L217.622258,238.967425196 L218.395131,238.928876882 L219.168004,239.313669192 L219.940877,239.23671073 L220.71375,238.044061818 L221.486623,238.390305814 L222.259496,238.274937204 L223.032369,238.428715962 L223.805242,237.928693208 L224.578115,238.00565167 L225.350988,237.50549075 L226.123861,237.659407674 L226.896734,236.928371368 L227.669607,237.236205216 L228.44248,238.082610132 L229.215353,237.00532983 L229.988226,236.582265538 L230.761099,236.77459261 L231.533972,237.043878144 L232.306845,236.236021542 L233.079718,237.00532983 L233.852591,236.77459261 L234.625464,236.043556304 L235.398337,236.043556304 L236.17121,235.966736008 L236.944083,236.543717224 L237.716956,235.735860622 L238.489829,235.081782778 L239.262702,235.351206478 L240.035575,235.65890216 L240.808448,234.581760024 L241.581321,235.197289554 L242.354194,235.081782778 L243.127067,235.081782778 L243.89994,235.389616626 L244.672813,234.658718486 L245.445686,235.197289554 L246.218559,234.889455706 L246.991432,233.658396646 L247.764305,233.966230494 L248.537178,234.466253248 L249.310051,233.92768218 L250.082924,233.773903422 L250.855797,233.619986498 L251.62867,233.966230494 L252.401543,233.273742502 L253.174416,234.92800402 L253.947289,233.235332354 L254.720162,233.042867116 L255.493035,233.158373892 L256.265908,233.273742502 L257.038781,232.927498506 L257.811654,232.58125451 L258.584527,232.504296048 L259.3574,232.850540044 L260.130273,232.427337586 L260.903146,231.85035637 L261.676019,232.08109359 L262.448892,232.196600366 L263.221765,231.734849594 L263.994638,232.235010514 L264.767511,232.504296048 L265.540384,231.96572498 L266.313257,232.004273294 L267.08613,231.080909916 L267.859003,230.926992992 L268.631876,231.119320064 L269.404749,231.196278526 L270.177622,231.196278526 L270.950495,231.542522522 L271.723368,231.427153912 L272.496241,230.811624382 L273.269114,230.00376778 L274.041987,230.85003453 L274.81486,230.11913639 L275.587733,230.426970238 L276.360606,229.50360686 L277.133479,230.773214234 L277.906352,229.426648398 L278.679225,230.350011776 L279.452098,228.695750258 L280.224971,229.734482246 L280.997844,228.88807733 L281.770717,229.542155174 L282.54359,229.695933932 L283.316463,229.426648398 L284.089336,229.426648398 L284.862209,229.080404402 L285.635082,228.965035792 L286.407955,229.311279788 L287.180828,227.887893656 L287.953701,228.464874872 L288.726574,228.118630876 L289.499447,228.15717919 L290.27232,228.926625644 L291.045193,227.580101258 L291.818066,228.503423186 L292.590939,228.811118868 L293.363812,228.234137652 L294.136685,227.695511318 L294.909558,227.464691198 L295.682431,227.503156612 L296.455304,227.272336493 L297.228177,227.887893656 L298.00105,227.810921377 L298.773923,226.810682437 L299.546796,227.195391847 L300.319669,226.195166724 L301.092542,226.849161668 L301.865415,226.926106313 L302.638288,227.118461019 L303.411161,226.464452258 L304.184034,226.425986843 L304.956907,226.233632138 L305.72978,226.579862317 L306.502653,226.310576783 L307.275526,225.771991899 L308.048399,226.156687493 L308.821272,226.349042198 L309.594145,225.964332787 L310.367018,225.618102608 L311.139891,225.271872429 L311.912764,225.618102608 L312.685637,225.771991899 L313.45851,225.310337843 L314.231383,225.310337843 L315.004256,225.233407014 L315.777129,225.387282488 L316.550002,224.694808313 L317.322875,225.117983138 L318.095748,224.617877484 L318.868621,224.771752958 L319.641494,224.694808313 L320.414367,224.887163018 L321.18724,224.387043548 L321.960113,224.079278783 L322.732986,224.348578134 L323.505859,224.502467424 L324.278732,224.233168074 L325.051605,224.079278783 L325.824478,224.002347954 L326.597351,224.117758014 L327.370224,223.579173129 L328.143097,223.733048604 L328.91597,223.271408364 L329.688843,223.617638544 L330.461716,223.925403309 L331.234589,222.809754309 L332.007462,223.579173129 L332.780335,223.117519074 L333.553208,223.540693898 L334.326081,222.540468775 L335.098954,222.694344249 L335.871827,222.194224779 L336.6447,222.694344249 L337.417573,222.23270401 L338.190446,222.155759364 L338.963319,222.501989544 L339.736192,221.61717448 L340.509065,221.61717448 L341.281938,222.23270401 L342.054811,222.194224779 L342.827684,221.847994599 L343.600557,221.309409715 L344.37343,221.61717448 L345.146303,221.732584539 L345.919176,221.61717448 L346.692049,220.963165719 L347.464922,221.040110364 L348.237795,221.270930484 L349.010668,221.040110364 L349.783541,221.117055009 L350.556414,220.924700304 L351.329287,220.65541477 L352.10216,220.88623489 L352.875033,220.309170774 L353.647906,220.193760714 L354.420779,220.65541477 L355.193652,221.00164495 L355.966525,220.193760714 L356.739398,220.193760714 L357.512271,219.847530535 L358.285144,219.77058589 L359.058017,220.193760714 L359.83089,219.347411065 L360.603763,219.693641244 L361.376636,219.847530535 L362.149509,218.885770826 L362.922382,219.30894565 L363.695255,220.193760714 L364.468128,219.77058589 L365.241001,219.501300356 L366.013874,219.616710415 L366.786747,219.116590945 L367.55962,219.078111714 L368.332493,219.270466419 L369.105366,218.962701654 L369.878239,218.53952683 L370.651112,218.847291595 L371.423985,218.385651355 L372.196858,218.616471475 L372.969731,218.462596001 L373.742604,218.270241296 L374.515477,218.30870671 L375.28835,218.462596001 L376.061223,218.07788659 L376.834096,218.07788659 L377.606969,218.347185941 L378.379842,217.539301706 L379.152715,217.962476531 L379.925588,217.346947001 L380.698461,217.154592295 L381.471334,217.423891646 L382.244207,217.423891646 L383.01708,217.270002355 L383.789953,216.539062765 L384.562826,216.923772176 L385.335699,217.500836291 L386.108572,217.116126881 L386.881445,216.57752818 L387.654318,216.769882885 L388.427191,216.34670806 L389.200064,216.385187291 L389.972937,216.192832586 L390.74581,216.115887941 L391.518683,216.808362116 L392.291556,216.616007411 L393.064429,215.84658859 L393.837302,216.808362116 L394.610175,215.654233885 L395.383048,215.84658859 L396.155921,216.07740871 L396.928794,215.577303056 L397.701667,215.038707118 L398.47454,216.000477881 L399.247413,215.73117853 L400.020286,214.53858903 L400.793159,215.269531383 L401.566032,215.308002324 L402.338905,215.308002324 L403.111778,214.346235706 L403.884651,215.038707118 L404.657524,215.115649 L405.430397,214.654001853 L406.20327,214.0 L406.976143,215.384948351 L407.749016,214.884824736 L408.521889,214.269295206 L409.294762,214.961766618 L410.067635,214.076941329 L410.840508,215.769643945 L411.613381,214.615530912 L412.386254,213.345998147 L413.159127,214.269295206 L413.932,213.884588006 L414.704873,213.384469088 L415.477746,213.961529335 L416.250619,213.576822412 L417.023492,213.653764294 L417.796365,213.576822412 L418.569238,213.345998147 L419.342111,214.384706647 L420.114984,213.807646676 L420.887857,213.076704323 L421.66073,212.615051649 L422.433603,213.46141097 L423.206476,213.192115765 L423.979349,213.576822412 L424.752222,212.615051649 L425.525095,212.422696944 L426.297968,213.076704323 L427.070841,212.653526735 L427.843714,213.153646205 L428.616587,212.461176175 L429.38946,212.345766115 L430.162333,212.461176175 L430.935206,212.230356055 L431.708079,212.53812082 L432.480952,212.461176175 L433.253825,211.614812709 L434.026698,211.460937235 L434.799571,212.03800135 L435.572444,211.576347294 L436.345317,212.38423153 L437.11819,211.114707055 L437.891063,211.884112059 L438.663936,211.884112059 L439.436809,211.03776241 L440.209682,211.307047944 L440.982555,211.307047944 L441.755428,211.53788188 L442.528301,211.191637884 L443.301174,211.307047944 L444.074047,210.768463059 L444.84692,210.383753649 L445.619793,210.653052999 L446.392666,210.191398944 L447.165539,210.614587585 L447.938412,210.768463059 L448.711285,210.383753649 L449.484158,210.268343589 L450.257031,210.383753649 L451.029904,210.92235235 L451.802777,209.92211341 L452.57565,210.037523469 L453.348523,210.075988884 L454.121396,209.421993939 L454.894269,209.30658388 L455.667142,209.421993939 L456.440015,209.537403999 L457.212888,209.999058055 L457.985761,209.537403999 L458.758634,208.960339884 L459.531507,209.345049294 L460.30438,209.845168764 L461.077253,209.268104649 L461.850126,209.345049294 L462.622999,208.998819115 L463.395872,208.806464409 L464.168745,208.07552482 L464.941618,207.844690883 L465.714491,208.844929824 L466.487364,208.152455648 L467.260237,208.460220413 L468.03311,208.152455648 L468.805983,208.113990234 L469.578856,208.113990234 L470.351729,207.536926118 L471.124602,207.152216708 L471.897475,207.690815409 L472.670348,208.383289585 L473.443221,208.037045589 L474.216094,206.921396588 L474.988967,207.229161353 L475.76184,206.613631823 L476.534713,207.690815409 L477.307586,206.805986529 L478.080459,207.190695939 L478.853332,206.652097238 L479.626205,207.113751294 L480.399078,206.575166409 L481.171951,206.729041883 L481.944824,206.498221764 L482.717697,206.075046939 L483.49057,206.613631823 L484.263443,206.113512353 L485.036316,206.652097238 L485.809189,205.459517409 L486.582062,206.228922413 L487.354935,205.613392883 L488.127808,205.459517409 L488.900681,205.536448238 L489.673554,205.228683473 L490.446427,205.844226819 L491.2193,205.344107349 L491.992173,205.305628118 L492.765046,205.497982823 L493.537919,204.997863353 L494.310792,205.690337528 L495.083665,204.690098588 L495.856538,204.767043233 L496.629411,204.651633174 L497.402284,204.305389178 L498.175157,205.074807998 L498.94803,204.459278468 L499.720903,204.651633174 L500.493776,204.036103644 L501.266649,204.997863353 L502.039522,204.459278468 L502.812395,204.228458349 L503.585268,204.113034472 L504.358141,203.959158998 L505.131014,203.612928819 L505.903887,203.151274763 L506.67676,203.612928819 L507.449633,203.728338879 L508.222506,203.920693584 L508.995379,203.074330118 L509.768252,203.112809349 L510.541125,203.805269707 L511.313998,202.920454643 L512.086871,203.189740177 L512.859744,203.766804293 L513.632617,202.997385472 L514.40549,202.766565353 L515.178363,202.958920058 L515.951236,202.881975412 L516.724109,202.574210647 L517.496982,202.112570408 L518.269855,201.650916352 L519.042728,202.151035823 L519.815601,202.227980468 L520.588474,202.805044584 L521.361347,201.266206942 L522.13422,201.073866053 L522.907093,202.381855942 L523.679966,201.266206942 L524.452839,200.996921408 L525.225712,201.035386822 L525.998585,201.304686173 L526.771458,200.650677412 L527.544331,200.419857292 L528.317204,200.573746583 L529.090077,200.996921408 L529.86295,200.612211998 L530.635823,200.112106344 L531.408696,200.612211998 L532.181569,199.881230958 L532.954442,199.573535276 L533.727315,200.612211998 L534.500188,199.804272496 L535.273061,199.919779272 L536.045934,200.112106344 L536.818807,199.573535276 L537.59168,200.150516492 L538.364553,199.381208204 L539.137426,199.765862348 L539.910299,199.496576814 L540.683172,199.419618352 L541.456045,199.688903886 L542.228918,198.688720212 L543.001791,198.765678674 L543.774664,198.573213436 L544.547537,199.304249742 L545.32041,199.073374356 L546.093283,198.804088822 L546.866156,198.650171898 L547.639029,198.84249897 L548.411902,198.765678674 L549.184775,197.303744228 L549.957648,197.649988224 L550.730521,198.188559292 L551.503394,197.957683906 L552.276267,197.99623222 L553.04914,198.188559292 L553.822013,197.61143991 L554.594886,197.803905148 L555.367759,198.034642368 L556.140632,198.49639314 L556.913505,196.842131622 L557.686378,197.61143991 L558.459251,196.726624846 L559.232124,196.38038085 L560.004997,197.265195914 L560.77787,196.572846088 L561.550743,197.226785766 L562.323616,196.26501224 L563.096489,195.341787028 L563.869362,195.957316558 L564.642235,195.803399634 L565.415108,196.226602092 L566.187981,195.14932179 L566.960854,195.303238714 L567.733727,195.5341141 L568.5066,195.495565786 L569.279473,195.5341141 L570.052346,195.341787028 L570.825219,195.611072562 L571.598092,194.803077794 L572.370965,194.726257498 L573.143838,194.456971964 L573.916711,194.803077794 L574.689584,194.456971964 L575.462457,194.456971964 L576.23533,195.264828566 L577.008203,193.80289412 L577.781076,194.30305504 L578.553949,194.380013502 L579.326822,194.110727968 L580.099695,194.649299036 L580.872568,193.3027332 L581.645441,193.07199598 L582.418314,193.956811044 L583.191187,193.3027332 L583.96406,193.533608586 L584.736933,193.80289412 L585.509806,192.68720367 L586.282679,192.648793522 L587.055552,192.956489204 L587.828425,193.033447666 L588.601298,192.956489204 L589.374171,192.918079056 L590.147044,191.879347068 L590.919917,192.302549526 L591.69279,191.994715678 L592.465663,192.610245208 L593.238536,191.84093692 L594.011409,191.263817538 L594.784282,191.648609848 L595.557155,191.571651386 L596.330028,192.533424912 L597.102901,190.994532004 L597.875774,190.571329546 L598.648647,191.417734462 L599.42152,191.186859076 L600.194393,190.263633864 L600.967266,190.532919398 L601.740139,190.648288008 L602.513012,190.455960936 L603.285885,190.379002474 L604.058758,189.455777262 L604.831631,189.99434833 L605.604504,190.032758478 L606.377377,189.878841554 L607.15025,189.725062796 L607.923123,189.3788188 L608.695996,189.455777262 L609.468869,188.955616342 L610.241742,190.186675402 L611.014615,188.340086812 L611.787488,188.455455422 L612.560361,189.263312024 L613.333234,188.87865788 L614.106107,189.224901876 L614.87898,187.686008968 L615.651853,189.070984952 L616.424726,188.609372346 L617.197599,188.070801278 L617.970472,187.839925892 L618.743345,187.609188672 L619.516218,187.609188672 L620.289091,186.955110828 L621.061964,186.762783756 L621.834837,186.955110828 L622.60771,187.416723434 L623.380583,187.070479438 L624.153456,186.724235442 L624.926329,187.686008968 L625.699202,186.224212688 L626.472075,186.762783756 L627.244948,186.031885616 L628.017821,185.993337302 L628.790694,185.993337302 L629.563567,185.877968692 L630.33644,185.416356086 L631.109313,185.416356086 L631.882186,185.031563776 L632.655059,185.608683158 L633.427932,185.07011209 L634.200805,184.646909632 L634.973678,184.646909632 L635.746551,184.839236704 L636.519424,184.723868094 L637.292297,184.839236704 L638.06517,183.685136106 L638.838043,184.339075784 L639.610916,183.95442164 L640.383789,184.300665636 L641.156662,183.33889211 L641.929535,184.223707174 L642.702408,183.83905303 L643.475281,182.531035508 L644.248154,182.300160122 L645.021027,182.531035508 L645.7939,182.72336258 L646.566773,183.069606576 L647.339646,182.377118584 L648.112519,181.799999202 L648.885392,181.37693491 L649.658265,182.030874588 L650.431138,181.723178906 L651.204011,181.146059524 L651.976884,180.9921426 L652.749757,180.684446918 L653.52263,181.261428134 L654.295503,180.37661307 L655.068376,180.299654608 L655.841249,180.492119846 L656.614122,180.453571532 L657.386995,179.607166616 L658.159868,179.722673392 L658.932741,178.837858328 L659.705614,179.491798006 L660.478487,178.606982942 L661.25136,179.107143862 L662.024233,178.453066018 L662.797106,177.79912634 L663.569979,178.53002448 L664.342852,178.760899866 L665.115725,177.760578026 L665.888598,177.29896542 L666.661471,178.030001726 L667.434344,176.914311276 L668.207217,176.875762962 L668.98009,176.875762962 L669.752963,177.0682282 L670.525836,177.375923882 L671.298709,176.7988045 L672.071582,175.490925144 L672.844455,175.22163961 L673.617328,176.875762962 L674.390201,176.721984204 L675.163074,175.22163961 L675.935947,174.298276232 L676.70882,174.875395614 L677.481693,173.875073774 L678.254566,173.759705164 L679.027439,172.567056252 L679.800312,173.413461168 L680.573185,174.298276232 L681.346058,172.951848562 L682.118931,172.413277494 L682.891804,171.682241188 L683.664677,172.105443646 L684.43755,172.644014714 L685.210423,171.105259972 L685.983296,170.797426124 L686.756169,170.451182128 L687.529042,171.066711658 L688.301915,170.143486446 L689.074788,170.451182128 L689.847661,168.989385848 L690.620534,169.527956916 L691.393407,169.720283988 L692.16628,168.18139108 L692.939153,167.796736936 L693.712026,166.873511724 L694.484899,168.296897856 L695.257772,165.796231422 L696.030645,165.257660354 L696.803518,167.33512433 L697.576391,166.7195948 L698.349264,167.065838796 L699.122137,164.25747668 L699.89501,164.026601294 L700.667883,162.910910844 L701.440756,163.949642832 L702.213629,164.218928366 L702.986502,161.372156102 L703.759375,161.756810246 L704.532248,162.564666848 L705.305121,161.064322254 L706.077994,153.985801742 L706.850867,137.751158576 L707.62374,160.141097042 L708.396613,160.525751186 L709.169486,155.986307256 L709.942359,115.707464106 L710.715232,127.979644558 L711.488105,113.322304448 L712.260978,111.014103252 L713.033851,103.05062951 L713.806724,97.62623235 L714.579597,111.821959854 L715.35247,94.625543162 L716.125343,94.971787158 L716.898216,88.27792079 L717.671089,92.240383504 L718.443962,98.472637266 L719.216835,87.04686173 L719.989708,86.969903268 L720.762581,83.276726088 L721.535454,85.623475598 L722.308327,81.12230365 L723.0812,80.814607968 L723.854073,83.007440554 L724.626946,79.27571506 L725.399819,80.622280896 L726.172692,78.352489848 L726.945565,75.2744277 L727.718438,75.77458862 L728.491311,77.082882474 L729.264184,72.31214866 L730.037057,71.65862348 L730.80993,70.96641182 L731.582803,70.7356746 L732.355676,72.62025884 L733.128549,69.58060684 L733.901422,68.54298018 L734.674295,68.19618352 L735.447168,67.6960226 L736.220041,68.46560722 L736.992914,65.50332818 L737.765787,65.38726874 L738.53866,66.46496354 L739.311533,64.54169282 L740.084406,63.19457432 L740.857279,61.30999008 L741.630152,63.58005746 L742.403025,62.27162544 L743.175898,61.810151 L743.948771,60.3870412 L744.721644,59.11729566 L745.494517,58.92524492 L746.26739,59.61745658 L747.040263,55.57748274 L747.813136,57.73287234 L748.586009,57.42476216 L749.358882,55.1160083 L750.131755,56.1937031 L750.904628,52.69257666 L751.677501,54.46248312 L752.450374,55.53879626 L753.223247,52.46183944 L753.99612,52.23110222 L754.768993,49.69161114 L755.541866,51.1920939 L756.314739,51.61488186 L757.087612,49.11407726 L757.860485,49.03808596 L758.633358,47.96039116 L759.406231,48.88334004 L760.179104,48.53792504 L760.951977,45.72901026 L761.72485,44.95942564 L762.497723,46.3839171 L763.270596,45.45958656 L764.043469,44.11384972 L764.816342,42.49730752 L765.589215,42.49730752 L766.362088,43.80573954 L767.134961,41.76640938 L767.907834,42.11320604 L768.680707,40.42067254 L769.45358,40.42067254 L770.226453,40.88214698 L770.999326,38.3426559 L771.772199,38.8815033 L772.545072,38.38134238 L773.317945,38.03454572 L774.090818,37.84249498 L774.863691,33.99595354 L775.636564,35.68848704 L776.409437,35.5724276 L777.18231,35.61111408 L777.955183,35.03496186 L778.728056,33.11030948 L779.500929,33.45710614 L780.273802,32.53415726 L781.046675,31.68719968 L781.819548,32.34210652 L782.592421,29.80261544 L783.365294,29.6105647 L784.138167,31.11104746 L784.91104,28.22475972 L785.683913,28.76360712 L786.456786,27.22443788 L787.229659,28.30213268 L788.002532,29.4171323 L788.775405,25.53190438 L789.548278,26.18681122 L790.321151,24.64764198 L791.094024,24.0701081 L791.866897,24.76231976 L792.63977,21.91610016 L793.412643,22.72437126 L794.185516,22.30020164 L794.958389,22.18552386 L795.731262,21.14651554 L796.504135,19.531355 " fill-rule="evenodd" vector-effect="non-scaling-stroke"/>
                    </g>
                </g>
            </g>
            <g id="PlotDataItem_2"/>
            <g id="PlotDataItem_3"/>
            <g id="PlotDataItem_4"/>
            <g id="PlotDataItem_5"/>
            <g id="PlotDataItem_6"/>
            <g id="PlotDataItem_7"/>
            <g id="PlotDataItem_8"/>
            <g id="PlotDataItem_9"/>
            <g id="PlotDataItem_10"/>
            <g id="PlotDataItem_11"/>
            <g id="PlotDataItem_12"/>
        </g>
    </g>
</g>

</svg>
